<svg width="31" height="31" viewBox="0 0 31 31" fill="none" xmlns="http://www.w3.org/2000/svg">
<circle cx="15.5" cy="15.5" r="15.5" fill="#6F52ED"/>
<path d="M15.5013 14.1704C14.7642 14.1704 14.1721 14.7625 14.1721 15.4996C14.1721 16.2367 14.7642 16.8288 15.5013 16.8288C16.2384 16.8288 16.8305 16.2367 16.8305 15.4996C16.8305 14.7625 16.2384 14.1704 15.5013 14.1704ZM15.5013 3.41626C8.8313 3.41626 3.41797 8.82959 3.41797 15.4996C3.41797 22.1696 8.8313 27.5829 15.5013 27.5829C22.1713 27.5829 27.5846 22.1696 27.5846 15.4996C27.5846 8.82959 22.1713 3.41626 15.5013 3.41626ZM18.1476 18.1458L8.2513 22.7496L12.8551 12.8533L22.7513 8.24959L18.1476 18.1458Z" fill="white"/>
</svg>
