<svg width="31" height="31" viewBox="0 0 31 31" fill="none" xmlns="http://www.w3.org/2000/svg">
<circle cx="15.5" cy="15.5" r="15.5" fill="#6F52ED"/>
<path d="M11.8753 15.1975C11.0416 15.1975 10.3649 15.8742 10.3649 16.7079C10.3649 17.5417 11.0416 18.2183 11.8753 18.2183C12.7091 18.2183 13.3857 17.5417 13.3857 16.7079C13.3857 15.8742 12.7091 15.1975 11.8753 15.1975ZM19.1253 15.1975C18.2916 15.1975 17.6149 15.8742 17.6149 16.7079C17.6149 17.5417 18.2916 18.2183 19.1253 18.2183C19.9591 18.2183 20.6357 17.5417 20.6357 16.7079C20.6357 15.8742 19.9591 15.1975 19.1253 15.1975ZM15.5003 3.41626C8.83033 3.41626 3.41699 8.82959 3.41699 15.4996C3.41699 22.1696 8.83033 27.5829 15.5003 27.5829C22.1703 27.5829 27.5837 22.1696 27.5837 15.4996C27.5837 8.82959 22.1703 3.41626 15.5003 3.41626ZM15.5003 25.1663C10.1716 25.1663 5.83366 20.8283 5.83366 15.4996C5.83366 15.1492 5.85783 14.7988 5.89408 14.4604C8.74574 13.1917 11.0053 10.8596 12.1895 7.97168C14.3766 11.065 17.9774 13.0829 22.0495 13.0829C22.992 13.0829 23.8982 12.9742 24.7682 12.7688C25.022 13.6267 25.167 14.545 25.167 15.4996C25.167 20.8283 20.8291 25.1663 15.5003 25.1663Z" fill="white"/>
</svg>
